<svg width="30" height="31" viewBox="0 0 30 31" fill="none" xmlns="http://www.w3.org/2000/svg">
<g filter="url(#filter0_d_265_2226)">
<g clip-path="url(#clip0_265_2226)">
<rect x="4" y="2.15494" width="22" height="22" rx="11" fill="white"/>
<path d="M10.6458 20.4883C10.6458 20.3049 10.6917 20.1216 10.8292 19.9841L17.7042 13.1549L10.8292 6.32576C10.5542 6.05076 10.5542 5.63826 10.8292 5.36326C11.1042 5.08826 11.5167 5.08826 11.7917 5.36326L19.125 12.6966C19.4 12.9716 19.4 13.3841 19.125 13.6591L11.7917 20.9924C11.5167 21.2674 11.1042 21.2674 10.8292 20.9924C10.6917 20.8549 10.6458 20.6716 10.6458 20.4883Z" fill="#8E8E8E"/>
</g>
</g>
<defs>
<filter id="filter0_d_265_2226" x="0" y="0.154938" width="30" height="30" filterUnits="userSpaceOnUse" color-interpolation-filters="sRGB">
<feFlood flood-opacity="0" result="BackgroundImageFix"/>
<feColorMatrix in="SourceAlpha" type="matrix" values="0 0 0 0 0 0 0 0 0 0 0 0 0 0 0 0 0 0 127 0" result="hardAlpha"/>
<feOffset dy="2"/>
<feGaussianBlur stdDeviation="2"/>
<feComposite in2="hardAlpha" operator="out"/>
<feColorMatrix type="matrix" values="0 0 0 0 0 0 0 0 0 0 0 0 0 0 0 0 0 0 0.25 0"/>
<feBlend mode="normal" in2="BackgroundImageFix" result="effect1_dropShadow_265_2226"/>
<feBlend mode="normal" in="SourceGraphic" in2="effect1_dropShadow_265_2226" result="shape"/>
</filter>
<clipPath id="clip0_265_2226">
<rect x="4" y="2.15494" width="22" height="22" rx="11" fill="white"/>
</clipPath>
</defs>
</svg>
